<?xml version="1.0" encoding="UTF-8" standalone="no"?>
<!-- Created with Inkscape (http://www.inkscape.org/) -->

<svg
   inkscape:export-ydpi="96"
   inkscape:export-xdpi="96"
   inkscape:export-filename="Template.png"
   width="192"
   height="152"
   id="svg11300"
   sodipodi:version="0.32"
   inkscape:version="1.4.4 (dcaf3e7d9e, 2026-05-05)"
   sodipodi:docname="dev.datlag.Isekai-template.svg"
   inkscape:output_extension="org.inkscape.output.svg.inkscape"
   version="1.0"
   style="display:inline;enable-background:new"
   viewBox="0 0 192 152"
   xml:space="preserve"
   xmlns:inkscape="http://www.inkscape.org/namespaces/inkscape"
   xmlns:sodipodi="http://sodipodi.sourceforge.net/DTD/sodipodi-0.dtd"
   xmlns="http://www.w3.org/2000/svg"
   xmlns:svg="http://www.w3.org/2000/svg"
   xmlns:rdf="http://www.w3.org/1999/02/22-rdf-syntax-ns#"
   xmlns:cc="http://creativecommons.org/ns#"
   xmlns:dc="http://purl.org/dc/elements/1.1/"><title
     id="title4162">Adwaita Icon Template</title><defs
     id="defs3"><inkscape:path-effect
       effect="fillet_chamfer"
       id="path-effect15"
       is_visible="true"
       lpeversion="1"
       satellites_param="F,0,0,1,0,8,0,1 @ F,0,0,1,0,0,0,1 @ F,0,0,1,0,0,0,1 @ F,0,0,1,0,0,0,1 @ F,0,0,1,0,0,0,1 @ F,0,0,1,0,0,0,1 @ F,0,0,1,0,0,0,1 @ F,0,0,1,0,0,0,1 @ F,0,0,1,0,0,0,1"
       unit="px"
       method="auto"
       mode="F"
       radius="0"
       chamfer_steps="1"
       flexible="false"
       use_knot_distance="true"
       apply_no_radius="true"
       apply_with_radius="true"
       only_selected="false"
       hide_knots="false"
       nodesatellites_param="F,0,0,1,0,8,0,1 @ F,0,0,1,0,0,0,1 @ F,0,0,1,0,0,0,1 @ F,0,0,1,0,0,0,1 @ F,0,0,1,0,0,0,1 @ F,0,0,1,0,0,0,1 @ F,0,0,1,0,0,0,1 @ F,0,0,1,0,0,0,1 @ F,0,0,1,0,0,0,1" /><clipPath
       clipPathUnits="userSpaceOnUse"
       id="clipPath1609-3-1-6"><path
         sodipodi:nodetypes="cccccc"
         inkscape:connector-curvature="0"
         id="path1611-6-6-8"
         d="m 252,116 28,-28 v -8 h -36 v 36 z"
         style="fill:#e74747;stroke:none;stroke-width:0.25px;stroke-linecap:butt;stroke-linejoin:miter;stroke-opacity:1" /></clipPath><inkscape:path-effect
       effect="fillet_chamfer"
       id="path-effect13944"
       is_visible="true"
       lpeversion="1"
       satellites_param="F,0,0,1,0,8,0,1 @ F,0,0,1,0,0,0,1 @ F,0,0,1,0,0,0,1 @ F,0,0,1,0,0,0,1 @ F,0,0,1,0,0,0,1 @ F,0,0,1,0,0,0,1 @ F,0,0,1,0,0,0,1 @ F,0,0,1,0,0,0,1 @ F,0,0,1,0,0,0,1"
       unit="px"
       method="auto"
       mode="F"
       radius="0"
       chamfer_steps="1"
       flexible="false"
       use_knot_distance="true"
       apply_no_radius="true"
       apply_with_radius="true"
       only_selected="false"
       hide_knots="false"
       nodesatellites_param="F,0,0,1,0,8,0,1 @ F,0,0,1,0,0,0,1 @ F,0,0,1,0,0,0,1 @ F,0,0,1,0,0,0,1 @ F,0,0,1,0,0,0,1 @ F,0,0,1,0,0,0,1 @ F,0,0,1,0,0,0,1 @ F,0,0,1,0,0,0,1 @ F,0,0,1,0,0,0,1" /><clipPath
       clipPathUnits="userSpaceOnUse"
       id="clipPath1609-3-1-6-9"><path
         sodipodi:nodetypes="cccccc"
         inkscape:connector-curvature="0"
         id="path1611-6-6-8-3"
         d="m 252,116 28,-28 v -8 h -36 v 36 z"
         style="fill:#e74747;stroke:none;stroke-width:0.25px;stroke-linecap:butt;stroke-linejoin:miter;stroke-opacity:1" /></clipPath><clipPath
       clipPathUnits="userSpaceOnUse"
       id="clipPath28140"><path
         sodipodi:nodetypes="cccccc"
         inkscape:connector-curvature="0"
         id="path28142"
         d="M 244.36364,123.63637 280,88.000003 V 77.818198 h -45.81817 v 45.818172 z"
         style="fill:#e74747;stroke:none;stroke-width:0.250001px;stroke-linecap:butt;stroke-linejoin:miter;stroke-opacity:1" /></clipPath><clipPath
       clipPathUnits="userSpaceOnUse"
       id="clipPath28145"><path
         sodipodi:nodetypes="cccccc"
         inkscape:connector-curvature="0"
         id="path28147"
         d="M 244.36364,123.63637 280,88.000003 v -8.000007 h -43.63636 v 43.636374 z"
         style="fill:#e74747;stroke:none;stroke-width:0.250001px;stroke-linecap:butt;stroke-linejoin:miter;stroke-opacity:1" /></clipPath></defs><sodipodi:namedview
     stroke="#ef2929"
     fill="#f57900"
     id="base"
     pagecolor="#ffffff"
     bordercolor="#666666"
     borderopacity="0.25490196"
     inkscape:pageopacity="0.0"
     inkscape:pageshadow="2"
     inkscape:zoom="5.6568545"
     inkscape:cx="89.979333"
     inkscape:cy="104.12147"
     inkscape:current-layer="layer9"
     showgrid="false"
     inkscape:grid-bbox="true"
     inkscape:document-units="px"
     inkscape:showpageshadow="false"
     inkscape:window-width="2560"
     inkscape:window-height="1371"
     inkscape:window-x="0"
     inkscape:window-y="0"
     width="400px"
     height="300px"
     inkscape:snap-nodes="true"
     inkscape:snap-bbox="true"
     objecttolerance="7"
     gridtolerance="12"
     guidetolerance="13"
     inkscape:window-maximized="1"
     inkscape:pagecheckerboard="false"
     showguides="false"
     inkscape:guide-bbox="true"
     inkscape:locked="false"
     inkscape:measure-start="0,0"
     inkscape:measure-end="0,0"
     inkscape:object-nodes="true"
     inkscape:bbox-nodes="true"
     inkscape:snap-global="true"
     inkscape:object-paths="true"
     inkscape:snap-intersection-paths="true"
     inkscape:snap-bbox-edge-midpoints="true"
     inkscape:snap-bbox-midpoints="true"
     showborder="true"
     inkscape:snap-center="true"
     inkscape:snap-object-midpoints="true"
     inkscape:snap-midpoints="true"
     inkscape:snap-smooth-nodes="true"
     inkscape:snap-text-baseline="true"
     borderlayer="true"
     inkscape:deskcolor="#d1d1d1"><inkscape:grid
       type="xygrid"
       id="grid5883"
       spacingx="2"
       spacingy="2"
       enabled="true"
       visible="true"
       empspacing="4"
       originx="8"
       originy="8"
       units="px" /><sodipodi:guide
       position="72,16"
       orientation="0,1"
       id="guide1073"
       inkscape:locked="false"
       inkscape:label=""
       inkscape:color="rgb(0,0,255)" /><sodipodi:guide
       position="20,72"
       orientation="1,0"
       id="guide1075"
       inkscape:locked="false"
       inkscape:label=""
       inkscape:color="rgb(0,0,255)" /><sodipodi:guide
       position="72,112"
       orientation="0,1"
       id="guide1099"
       inkscape:locked="false"
       inkscape:label=""
       inkscape:color="rgb(0,0,255)" /><sodipodi:guide
       position="72,136"
       orientation="0,1"
       id="guide993"
       inkscape:locked="false"
       inkscape:label=""
       inkscape:color="rgb(0,0,255)" /><sodipodi:guide
       position="112,72"
       orientation="1,0"
       id="guide995"
       inkscape:locked="false"
       inkscape:label=""
       inkscape:color="rgb(0,0,255)" /><sodipodi:guide
       position="8.0000001,72"
       orientation="1,0"
       id="guide867"
       inkscape:locked="false"
       inkscape:label=""
       inkscape:color="rgb(0,0,255)" /><sodipodi:guide
       position="128,72"
       orientation="1,0"
       id="guide869"
       inkscape:locked="false"
       inkscape:label=""
       inkscape:color="rgb(0,0,255)" /><sodipodi:guide
       position="72,124"
       orientation="0,1"
       id="guide871"
       inkscape:locked="false"
       inkscape:label=""
       inkscape:color="rgb(0,0,255)" /><inkscape:grid
       type="xygrid"
       id="grid873"
       spacingx="1"
       spacingy="1"
       empspacing="8"
       color="#000000"
       opacity="0.49019608"
       empcolor="#000000"
       empopacity="0.08627451"
       dotted="true"
       originx="8"
       originy="8"
       units="px" /><sodipodi:guide
       position="32,72"
       orientation="1,0"
       id="guide877"
       inkscape:locked="false"
       inkscape:label=""
       inkscape:color="rgb(0,0,255)" /><sodipodi:guide
       position="124,72"
       orientation="1,0"
       id="guide879"
       inkscape:locked="false"
       inkscape:label=""
       inkscape:color="rgb(0,0,255)" /><sodipodi:guide
       position="72,128"
       orientation="0,1"
       id="guide881"
       inkscape:locked="false"
       inkscape:label=""
       inkscape:color="rgb(0,0,255)" /><sodipodi:guide
       position="72,20"
       orientation="0,1"
       id="guide883"
       inkscape:locked="false"
       inkscape:label=""
       inkscape:color="rgb(0,0,255)" /><sodipodi:guide
       position="16,72"
       orientation="1,0"
       id="guide885"
       inkscape:locked="false"
       inkscape:label=""
       inkscape:color="rgb(0,0,255)" /><sodipodi:guide
       position="136,72"
       orientation="1,0"
       id="guide887"
       inkscape:locked="false"
       inkscape:label=""
       inkscape:color="rgb(0,0,255)" /><sodipodi:guide
       position="72,8"
       orientation="0,1"
       id="guide897"
       inkscape:locked="false"
       inkscape:label=""
       inkscape:color="rgb(0,0,255)" /><sodipodi:guide
       position="72,32"
       orientation="0,1"
       id="guide899"
       inkscape:locked="false"
       inkscape:label=""
       inkscape:color="rgb(0,0,255)" /><sodipodi:guide
       position="264,264"
       orientation="-0.70710678,0.70710678"
       id="guide950"
       inkscape:locked="false"
       inkscape:label=""
       inkscape:color="rgb(0,0,255)" /><sodipodi:guide
       position="72,72"
       orientation="0.70710678,0.70710678"
       id="guide952"
       inkscape:locked="false"
       inkscape:label=""
       inkscape:color="rgb(0,0,255)" /></sodipodi:namedview><metadata
     id="metadata4"><rdf:RDF><cc:Work
         rdf:about=""><dc:format>image/svg+xml</dc:format><dc:type
           rdf:resource="http://purl.org/dc/dcmitype/StillImage" /><dc:creator><cc:Agent><dc:title>GNOME Design Team</dc:title></cc:Agent></dc:creator><dc:source /><cc:license
           rdf:resource="http://creativecommons.org/licenses/by-sa/4.0/" /><dc:title>Adwaita Icon Template</dc:title><dc:subject><rdf:Bag /></dc:subject><dc:date /><dc:rights><cc:Agent><dc:title /></cc:Agent></dc:rights><dc:publisher><cc:Agent><dc:title /></cc:Agent></dc:publisher><dc:identifier /><dc:relation /><dc:language /><dc:coverage /><dc:description /><dc:contributor><cc:Agent><dc:title /></cc:Agent></dc:contributor></cc:Work><cc:License
         rdf:about="http://creativecommons.org/licenses/by-sa/4.0/"><cc:permits
           rdf:resource="http://creativecommons.org/ns#Reproduction" /><cc:permits
           rdf:resource="http://creativecommons.org/ns#Distribution" /><cc:requires
           rdf:resource="http://creativecommons.org/ns#Notice" /><cc:requires
           rdf:resource="http://creativecommons.org/ns#Attribution" /><cc:permits
           rdf:resource="http://creativecommons.org/ns#DerivativeWorks" /><cc:requires
           rdf:resource="http://creativecommons.org/ns#ShareAlike" /></cc:License></rdf:RDF></metadata><g
     id="layer1"
     inkscape:label="App Icon"
     inkscape:groupmode="layer"
     style="display:inline"
     transform="translate(8,-156)"><g
       inkscape:groupmode="layer"
       id="layer4"
       inkscape:label="template"
       style="display:inline"
       sodipodi:insensitive="true"><rect
         inkscape:label="0"
         y="172"
         x="9.2651362e-08"
         height="128"
         width="128"
         id="hicolor"
         style="display:inline;overflow:visible;visibility:visible;fill:#f0f0f0;fill-opacity:0;fill-rule:nonzero;stroke:none;stroke-width:0.5;marker:none;enable-background:accumulate" /><rect
         style="display:inline;overflow:visible;visibility:visible;fill:#f0f0f0;fill-opacity:0;fill-rule:nonzero;stroke:none;stroke-width:0.5;marker:none;enable-background:accumulate"
         id="symbolic"
         width="16"
         height="16"
         x="160"
         y="172"
         inkscape:label="0" /></g><g
       inkscape:groupmode="layer"
       id="layer2"
       inkscape:label="baseplate"
       style="display:inline"
       sodipodi:insensitive="true"><g
         style="display:inline;fill:#000000;enable-background:new"
         transform="matrix(7.9911709,0,0,8.0036407,-167.7909,-4846.0776)"
         id="g12027"
         inkscape:export-xdpi="12"
         inkscape:export-ydpi="12" /><rect
         style="display:inline;overflow:visible;visibility:visible;fill:#f0f0f0;fill-opacity:1;fill-rule:nonzero;stroke:none;stroke-width:0.5;marker:none;enable-background:accumulate"
         id="128"
         width="128"
         height="128"
         x="9.2651362e-08"
         y="172"
         inkscape:label="0" /><g
         id="g883"
         style="fill:none;fill-opacity:0.25098;stroke:#a579b3;stroke-opacity:1"
         transform="translate(-24,24)" /><g
         id="g900"
         style="fill:none;fill-opacity:0.25098;stroke:#a579b3;stroke-opacity:1"
         transform="translate(-24,24)" /><rect
         inkscape:label=""
         y="172"
         x="160"
         height="16"
         width="16"
         id="16"
         style="display:inline;overflow:visible;visibility:visible;fill:#f0f0f0;fill-opacity:1;fill-rule:nonzero;stroke:none;stroke-width:0.5;marker:none;enable-background:accumulate" /><text
         xml:space="preserve"
         style="font-style:normal;font-variant:normal;font-weight:bold;font-stretch:normal;font-size:4px;line-height:125%;font-family:Cantarell;-inkscape-font-specification:'Cantarell, Bold';text-align:start;writing-mode:lr-tb;text-anchor:start;display:inline;fill:#000000;fill-opacity:1;stroke:none;stroke-width:0.332649;enable-background:new"
         x="0"
         y="167"
         id="text863"
         inkscape:label="icon-name"><tspan
           style="font-size:4px;stroke-width:0.332649"
           sodipodi:role="line"
           id="tspan861"
           x="0"
           y="167">Hicolor</tspan></text><text
         inkscape:label="icon-name"
         id="text867"
         y="167"
         x="160"
         style="font-style:normal;font-variant:normal;font-weight:bold;font-stretch:normal;font-size:4px;line-height:125%;font-family:Cantarell;-inkscape-font-specification:'Cantarell, Bold';text-align:start;writing-mode:lr-tb;text-anchor:start;display:inline;fill:#000000;fill-opacity:1;stroke:none;stroke-width:0.332649;enable-background:new"
         xml:space="preserve"><tspan
           y="167"
           x="160"
           id="tspan865"
           sodipodi:role="line"
           style="font-size:4px;stroke-width:0.332649">Symbolic</tspan></text></g><g
       inkscape:groupmode="layer"
       id="layer9"
       inkscape:label="icons"
       style="display:inline"><g
         transform="matrix(-1,0,0,1,-80,934)"
         style="display:inline;enable-background:new"
         id="g36832" /><filter
         id="a"
         height="1"
         width="1"
         x="0"
         y="0"><feColorMatrix
           in="SourceGraphic"
           type="matrix"
           values="0 0 0 0 1 0 0 0 0 1 0 0 0 0 1 0 0 0 1 0"
           id="feColorMatrix161671" /></filter><mask
         id="b"><g
           filter="url(#a)"
           id="g161676"><path
             d="m 0 0 h 16 v 16 h -16 z"
             fill-opacity="0.3"
             id="path161674" /></g></mask><clipPath
         id="c"><path
           d="m 0 0 h 1600 v 1200 h -1600 z"
           id="path161679" /></clipPath><g
         clip-path="url(#c)"
         mask="url(#b)"
         transform="translate(-21.999996,-126)"
         id="g161686"
         style="fill:#222222;fill-opacity:1"><path
           d="m 580.9375,215.75 v -2.1875 l 4.21875,-1.12891 2.34375,0.59375 2.38672,-0.66797 3.74219,1 v 2.45313 z m 0,0"
           fill="#474747"
           id="path161684"
           style="fill:#222222;fill-opacity:1" /></g><g
         style="fill:none"
         id="g2"
         transform="matrix(0.3454039,0,0,0.3454039,2,193)"><path
           d="M 127,20 C 127,8.95431 135.954,0 147,0 h 192 c 11.046,0 20,8.9543 20,20 V 196 H 127 Z"
           fill="#3584e4"
           id="path1-3" /><path
           d="m 127,192 h 232 v 52 c 0,5.523 -4.477,10 -10,10 H 137 c -5.523,0 -10,-4.477 -10,-10 z"
           fill="#9a9996"
           id="path2-6" /><path
           d="m 127,192 h 232 v 40 c 0,5.523 -4.477,10 -10,10 H 137 c -5.523,0 -10,-4.477 -10,-10 z"
           fill="#deddda"
           id="path3-7" /><path
           fill-rule="evenodd"
           clip-rule="evenodd"
           d="M 220.232,54.1458 C 222.433,41.269 232.099,32 243.326,32 c 11.226,0 20.892,9.269 23.094,22.1458 l 2.63,15.385 c 1.376,8.0451 4.085,15.6969 7.976,22.5234 l 4.527,7.9433 c 2.825,4.9565 4.672,10.5565 5.437,16.3965 4.499,0.445 8.442,3.82 10.14,8.786 l 3.836,11.216 c 1.933,5.654 0.535,12.122 -3.465,16.02 l -14.696,14.325 c -4.279,4.172 -10.448,4.357 -14.904,0.447 l -5.918,-5.191 c -0.078,-0.068 -0.156,-0.138 -0.232,-0.209 -2.905,0.921 -5.961,1.413 -9.115,1.413 h -18.62 c -3.154,0 -6.21,-0.491 -9.115,-1.413 -0.076,0.071 -0.154,0.141 -0.232,0.209 l -5.917,5.191 c -4.457,3.91 -10.625,3.725 -14.905,-0.447 l -14.696,-14.325 c -4,-3.898 -5.398,-10.366 -3.465,-16.02 l 3.836,-11.216 c 1.698,-4.965 5.641,-8.34 10.139,-8.786 0.765,-5.84 2.612,-11.44 5.437,-16.3965 l 4.527,-7.9433 c 3.891,-6.8265 6.6,-14.4783 7.976,-22.5234 z m 49.181,65.0322 c -1.638,1.445 -2.966,3.385 -3.809,5.685 l -5.992,16.353 c -3.024,2.085 -6.52,3.242 -10.166,3.242 h -12.241 c -3.645,0 -7.141,-1.157 -10.165,-3.241 l -5.992,-16.354 c -0.843,-2.3 -2.171,-4.24 -3.809,-5.685 0.2,-2.965 0.884,-5.896 2.052,-8.626 l 9.814,-22.9602 0.059,0.0688 c 7.822,9.1495 20.504,9.1495 28.326,0 l 0.057,-0.0674 9.814,22.9588 c 1.168,2.73 1.851,5.661 2.052,8.626 z M 255.343,71.2754 V 60.1145 h -8.011 v 7.3711 c 1.7,0.4057 3.366,1.0725 4.952,2.0005 z M 239.32,67.4861 v -7.3716 h -8.012 v 11.162 l 3.061,-1.7904 c 1.586,-0.9276 3.251,-1.5942 4.951,-2 z m -38.64,58.2289 c -1.638,0 -3.111,1.166 -3.719,2.946 l -3.836,11.215 c -0.645,1.886 -0.178,4.041 1.155,5.341 l 14.696,14.325 c 1.427,1.39 3.483,1.452 4.968,0.149 l 5.918,-5.191 c 1.478,-1.296 2.006,-3.608 1.279,-5.595 l -7.457,-20.35 c -0.631,-1.723 -2.079,-2.84 -3.682,-2.84 z m 89.012,2.946 c -0.609,-1.78 -2.081,-2.946 -3.72,-2.946 h -9.322 c -1.603,0 -3.051,1.117 -3.682,2.84 l -7.456,20.35 c -0.728,1.987 -0.2,4.299 1.278,5.595 l 5.918,5.191 c 1.485,1.303 3.541,1.241 4.968,-0.149 l 14.696,-14.325 c 1.333,-1.3 1.8,-3.455 1.155,-5.341 z m -51.74,-50.7927 c 3.384,-1.9788 7.366,-1.9788 10.749,0 l 3.887,2.273 -0.763,0.8927 c -4.694,5.4897 -12.303,5.4897 -16.996,0 l -0.763,-0.8927 z"
           fill="#f6f5f4"
           id="path4-5" /><path
           d="m 110.391,44 c 5.523,0 10,4.4772 10,10 v 190 c 0,5.523 -4.477,10 -10,10 H 10 C 4.47715,254 0,249.523 0,244 v -92.337 c 0,-1.745 0.45664,-3.46 1.32454,-4.973 L 57.314,49.0264 C 59.0963,45.9175 62.4059,44 65.9895,44 Z"
           fill="#9a9996"
           id="path5-3" /><path
           d="m 110.391,32 c 5.523,0 10,4.4772 10,10 v 190 c 0,5.523 -4.477,10 -10,10 H 10 C 4.47715,242 0,237.523 0,232 v -92.337 c 0,-1.745 0.45664,-3.46 1.32454,-4.973 L 57.314,37.0264 C 59.0963,33.9175 62.4059,32 65.9895,32 Z"
           fill="#f6f5f4"
           id="path6-5" /><path
           d="M 67.246,60.5758 30.5763,126.725 c -2.0496,3.697 1.1288,8.112 5.2851,7.34 l 60.942,-11.307 c 2.3692,-0.439 4.0876,-2.506 4.0876,-4.916 V 63 c 0,-2.7614 -2.2383,-5 -4.9997,-5 H 71.619 c -1.8175,0 -3.4918,0.9862 -4.373,2.5758 z"
           fill="#99c1f1"
           id="path7-6" /><rect
           x="79.695602"
           y="160"
           width="18.652201"
           height="6"
           rx="3"
           fill="#241f31"
           id="rect7-2" /><ellipse
           cx="83.086998"
           cy="248"
           rx="23.7391"
           ry="28"
           fill="#241f31"
           id="ellipse7-9" /><ellipse
           cx="83.086998"
           cy="244"
           rx="23.7391"
           ry="28"
           fill="#3d3846"
           id="ellipse8-1" /><ellipse
           cx="83.086998"
           cy="244"
           rx="13.5652"
           ry="16"
           fill="#5e5c64"
           id="ellipse9-2" /><ellipse
           cx="312"
           cy="248"
           rx="23.7391"
           ry="28"
           fill="#241f31"
           id="ellipse10-7" /><ellipse
           cx="312"
           cy="244"
           rx="23.7391"
           ry="28"
           fill="#3d3846"
           id="ellipse11-0" /><ellipse
           cx="312"
           cy="244"
           rx="13.5652"
           ry="16"
           fill="#5e5c64"
           id="ellipse12-9" /></g></g><g
       inkscape:groupmode="layer"
       id="layer3"
       inkscape:label="grid"
       style="display:inline"
       sodipodi:insensitive="true"><circle
         cx="64.000031"
         cy="236"
         r="59.504131"
         id="circle2892"
         style="display:inline;opacity:0.1;vector-effect:none;fill:none;fill-opacity:1;stroke:#000000;stroke-width:0.99;stroke-linecap:butt;stroke-linejoin:miter;stroke-miterlimit:4;stroke-dasharray:0.99, 0.99;stroke-dashoffset:0;stroke-opacity:1;marker:none;marker-start:none;marker-mid:none;marker-end:none;paint-order:normal;enable-background:new" /><rect
         ry="7.9292889"
         rx="8.701004"
         y="180.49496"
         x="20.495007"
         height="111.01005"
         width="87.009987"
         id="rect2894"
         style="display:inline;opacity:0.1;vector-effect:none;fill:none;fill-opacity:1;stroke:#000000;stroke-width:0.99;stroke-linecap:butt;stroke-linejoin:miter;stroke-miterlimit:4;stroke-dasharray:0.99, 0.99;stroke-dashoffset:0;stroke-opacity:1;marker:none;marker-start:none;marker-mid:none;marker-end:none;paint-order:normal;enable-background:new" /><rect
         ry="7.9238095"
         rx="7.9238095"
         y="184.49524"
         x="12.495266"
         height="103.00952"
         width="103.00952"
         id="rect2896"
         style="display:inline;opacity:0.1;vector-effect:none;fill:none;fill-opacity:1;stroke:#000000;stroke-width:0.99;stroke-linecap:butt;stroke-linejoin:miter;stroke-miterlimit:4;stroke-dasharray:0.99, 0.99;stroke-dashoffset:0;stroke-opacity:1;marker:none;marker-start:none;marker-mid:none;marker-end:none;paint-order:normal;enable-background:new" /><rect
         ry="8.701005"
         rx="7.9292889"
         y="200.49496"
         x="8.4950066"
         height="87.010048"
         width="111.01004"
         id="rect2898"
         style="display:inline;opacity:0.1;vector-effect:none;fill:none;fill-opacity:1;stroke:#000000;stroke-width:0.99;stroke-linecap:butt;stroke-linejoin:miter;stroke-miterlimit:4;stroke-dasharray:0.99, 0.99;stroke-dashoffset:0;stroke-opacity:1;marker:none;marker-start:none;marker-mid:none;marker-end:none;paint-order:normal;enable-background:new" /><path
         inkscape:connector-curvature="0"
         id="path2900"
         d="M 2.6203015e-5,288.99999 H 128.00003"
         style="display:inline;fill:none;stroke:#62a0ea;stroke-width:2;stroke-linecap:butt;stroke-linejoin:miter;stroke-miterlimit:4;stroke-dasharray:none;stroke-opacity:1;enable-background:new" /></g></g></svg>
